<?xml version="1.0" standalone="no"?>
<!DOCTYPE svg PUBLIC "-//W3C//DTD SVG 20010904//EN"
 "http://www.w3.org/TR/2001/REC-SVG-20010904/DTD/svg10.dtd">
<svg version="1.0" xmlns="http://www.w3.org/2000/svg"
 width="790.000000pt" height="790.000000pt" viewBox="0 0 790.000000 790.000000"
 preserveAspectRatio="xMidYMid meet">
<metadata>
Created by potrace 1.14, written by Peter Selinger 2001-2017
</metadata>
<g transform="translate(0.000000,790.000000) scale(0.100000,-0.100000)"
fill="#000000" stroke="none">
<path d="M3719 7726 c-2 -2 -44 -7 -94 -10 -80 -6 -130 -12 -260 -31 -67 -10
-197 -35 -235 -45 -19 -5 -47 -11 -61 -14 -37 -6 -167 -43 -279 -78 -306 -97
-633 -255 -921 -444 -362 -238 -688 -547 -955 -904 -237 -316 -443 -716 -564
-1095 -31 -97 -104 -379 -113 -440 -3 -16 -10 -59 -16 -95 -5 -36 -13 -87 -16
-115 -4 -27 -8 -61 -11 -75 -19 -115 -26 -582 -11 -753 10 -120 41 -328 61
-427 29 -136 43 -191 72 -292 122 -422 298 -783 573 -1176 123 -177 407 -488
564 -619 34 -28 71 -60 83 -71 45 -42 244 -189 349 -256 344 -224 680 -375
1079 -486 43 -12 91 -24 105 -26 14 -3 51 -11 81 -19 30 -7 89 -19 130 -25 41
-7 83 -14 93 -16 153 -28 310 -39 582 -39 246 0 309 4 500 29 1089 146 2064
764 2667 1692 304 467 503 1003 573 1544 3 25 8 56 10 70 20 115 27 564 11
765 -4 61 -9 112 -11 115 -1 3 -6 32 -9 65 -31 273 -124 622 -249 932 -41 100
-177 383 -197 408 -4 6 -20 33 -35 60 -57 103 -217 335 -322 465 -128 159
-364 401 -518 529 -96 80 -263 206 -313 236 -9 6 -57 36 -105 68 -48 31 -90
57 -92 57 -2 0 -28 14 -57 31 -82 49 -272 142 -393 194 -158 68 -458 166 -584
191 -12 3 -51 11 -85 19 -34 8 -79 17 -100 21 -21 3 -48 8 -60 10 -11 3 -39 7
-61 10 -22 3 -51 7 -65 10 -14 2 -52 6 -85 9 -33 4 -73 9 -90 12 -34 5 -561
14 -566 9z m541 -469 c19 -3 61 -8 92 -12 31 -3 83 -10 115 -16 32 -5 84 -14
117 -20 297 -51 752 -220 1007 -375 31 -19 59 -34 62 -34 13 0 269 -178 352
-245 145 -117 164 -134 285 -255 118 -117 213 -224 306 -345 323 -420 551
-957 633 -1495 32 -208 32 -210 36 -460 4 -257 -11 -455 -50 -650 -3 -14 -10
-50 -16 -80 -47 -241 -140 -512 -267 -780 -43 -91 -166 -302 -238 -406 -190
-280 -463 -569 -724 -767 -41 -31 -79 -61 -85 -65 -25 -19 -216 -143 -270
-175 -91 -53 -268 -140 -380 -187 -55 -23 -109 -45 -120 -50 -56 -24 -340
-110 -413 -125 -9 -2 -62 -12 -117 -23 -55 -11 -127 -23 -160 -27 -33 -3 -67
-8 -75 -10 -74 -19 -519 -27 -693 -12 -595 50 -1144 257 -1671 631 -139 98
-412 348 -531 486 -435 501 -706 1098 -794 1745 -21 153 -26 239 -26 445 0
235 7 343 35 510 6 30 12 73 15 95 12 81 76 324 118 450 114 338 275 645 491
935 38 52 73 97 76 100 3 3 30 34 60 70 30 35 76 87 102 115 l47 50 -52 -105
c-42 -85 -102 -241 -114 -295 -1 -5 -9 -41 -17 -80 -24 -112 -28 -152 -30
-290 -6 -350 97 -664 313 -955 56 -75 216 -240 261 -268 14 -9 43 -30 65 -48
169 -131 436 -238 685 -274 81 -11 331 -16 377 -6 11 2 43 8 70 11 44 7 108
21 203 45 149 39 349 144 505 265 132 104 234 213 330 357 123 183 211 408
240 613 3 22 8 50 11 63 11 51 4 313 -10 407 -50 322 -204 625 -435 853 -289
285 -658 441 -1051 445 -146 1 -226 -3 -257 -14 -13 -5 -23 -5 -23 0 0 29 534
194 700 216 25 3 52 8 60 10 29 9 157 24 245 31 50 3 92 8 94 10 5 5 471 -3
511 -9z"/>
</g>
</svg>
